<svg width="314" height="41" viewBox="0 0 314 41" fill="none" xmlns="http://www.w3.org/2000/svg">
<path d="M7.15 38H0.550003L13.75 1.45H20.3L33.5 38H26.75L23.8 29.55H10.15L7.15 38ZM16.2 12.35L12 24.15H21.95L17.75 12.35C17.6167 11.85 17.4667 11.35 17.3 10.85C17.1333 10.35 17.0333 9.91666 17 9.55C16.9333 9.88333 16.8167 10.3167 16.65 10.85C16.5167 11.35 16.3667 11.85 16.2 12.35Z" fill="black"/>
<path d="M44.3832 38H38.0832V1.45H44.4332L63.4332 30.2H61.5832V1.45H67.8832V38H61.5832L42.5332 9.3H44.3832V38Z" fill="black"/>
<path d="M79.0738 38H72.4738L85.6738 1.45H92.2238L105.424 38H98.6738L95.7238 29.55H82.0738L79.0738 38ZM88.1238 12.35L83.9238 24.15H93.8738L89.6738 12.35C89.5405 11.85 89.3905 11.35 89.2238 10.85C89.0572 10.35 88.9572 9.91666 88.9238 9.55C88.8572 9.88333 88.7405 10.3167 88.5738 10.85C88.4405 11.35 88.2905 11.85 88.1238 12.35Z" fill="black"/>
<path d="M116.407 1.45V38H110.007V1.45H116.407ZM111.107 38V32.1H131.657V38H111.107Z" fill="#4E3FDD"/>
<path d="M168.454 19.7C168.454 23.4 167.704 26.6833 166.204 29.55C164.704 32.3833 162.62 34.6 159.954 36.2C157.287 37.8 154.204 38.6 150.704 38.6C147.237 38.6 144.17 37.8 141.504 36.2C138.837 34.6 136.754 32.3833 135.254 29.55C133.787 26.7167 133.054 23.45 133.054 19.75C133.054 16.0167 133.804 12.7333 135.304 9.89999C136.804 7.03333 138.87 4.8 141.504 3.19999C144.17 1.6 147.254 0.799995 150.754 0.799995C154.254 0.799995 157.32 1.6 159.954 3.19999C162.62 4.8 164.704 7.01666 166.204 9.84999C167.704 12.6833 168.454 15.9667 168.454 19.7ZM161.754 19.7C161.754 17.1 161.304 14.85 160.404 12.95C159.504 11.05 158.237 9.58333 156.604 8.54999C154.97 7.48333 153.02 6.94999 150.754 6.94999C148.52 6.94999 146.57 7.48333 144.904 8.54999C143.27 9.58333 142.004 11.05 141.104 12.95C140.204 14.85 139.754 17.1 139.754 19.7C139.754 22.3 140.204 24.5667 141.104 26.5C142.004 28.4 143.27 29.8667 144.904 30.9C146.57 31.9333 148.52 32.45 150.754 32.45C153.02 32.45 154.97 31.9333 156.604 30.9C158.237 29.8333 159.504 28.35 160.404 26.45C161.304 24.5167 161.754 22.2667 161.754 19.7Z" fill="#4E3FDD"/>
<path d="M190.46 6.85C188.06 6.85 186.01 7.39999 184.31 8.49999C182.61 9.59999 181.31 11.1333 180.41 13.1C179.51 15.0333 179.06 17.3333 179.06 20C179.06 22.7 179.543 25 180.51 26.9C181.477 28.7667 182.81 30.1833 184.51 31.15C186.243 32.1167 188.227 32.6 190.46 32.6C192.093 32.6 193.527 32.4 194.76 32C196.027 31.5667 197.093 30.95 197.96 30.15C198.827 29.3167 199.493 28.3167 199.96 27.15C200.46 25.9833 200.71 24.6833 200.71 23.25V20.05L203.71 23.1H189.66V17.45H206.66V38H201.26L200.71 32.1L201.46 32.85C200.927 33.95 200.077 34.9333 198.91 35.8C197.777 36.6667 196.427 37.35 194.86 37.85C193.293 38.3167 191.593 38.55 189.76 38.55C186.36 38.55 183.343 37.7833 180.71 36.25C178.11 34.6833 176.06 32.5 174.56 29.7C173.093 26.9 172.36 23.6167 172.36 19.85C172.36 16.15 173.11 12.8833 174.61 10.05C176.143 7.18333 178.277 4.93333 181.01 3.3C183.777 1.66666 186.977 0.849995 190.61 0.849995C193.41 0.849995 195.943 1.36666 198.21 2.4C200.477 3.39999 202.327 4.81666 203.76 6.64999C205.227 8.48333 206.127 10.65 206.46 13.15H199.71C199.143 10.9833 198.01 9.39999 196.31 8.4C194.61 7.36666 192.66 6.85 190.46 6.85Z" fill="#4E3FDD"/>
<path d="M246.823 19.7C246.823 23.4 246.073 26.6833 244.573 29.55C243.073 32.3833 240.989 34.6 238.323 36.2C235.656 37.8 232.573 38.6 229.073 38.6C225.606 38.6 222.539 37.8 219.873 36.2C217.206 34.6 215.123 32.3833 213.623 29.55C212.156 26.7167 211.423 23.45 211.423 19.75C211.423 16.0167 212.173 12.7333 213.673 9.89999C215.173 7.03333 217.239 4.8 219.873 3.19999C222.539 1.6 225.623 0.799995 229.123 0.799995C232.623 0.799995 235.689 1.6 238.323 3.19999C240.989 4.8 243.073 7.01666 244.573 9.84999C246.073 12.6833 246.823 15.9667 246.823 19.7ZM240.123 19.7C240.123 17.1 239.673 14.85 238.773 12.95C237.873 11.05 236.606 9.58333 234.973 8.54999C233.339 7.48333 231.389 6.94999 229.123 6.94999C226.889 6.94999 224.939 7.48333 223.273 8.54999C221.639 9.58333 220.373 11.05 219.473 12.95C218.573 14.85 218.123 17.1 218.123 19.7C218.123 22.3 218.573 24.5667 219.473 26.5C220.373 28.4 221.639 29.8667 223.273 30.9C224.939 31.9333 226.889 32.45 229.123 32.45C231.389 32.45 233.339 31.9333 234.973 30.9C236.606 29.8333 237.873 28.35 238.773 26.45C239.673 24.5167 240.123 22.2667 240.123 19.7Z" fill="black"/>
<path d="M252.579 24.65V1.45H258.979V24.25C258.979 26.8833 259.679 28.9 261.079 30.3C262.479 31.7 264.463 32.4 267.029 32.4C269.629 32.4 271.629 31.7 273.029 30.3C274.429 28.8667 275.129 26.85 275.129 24.25V1.45H281.529V24.65C281.529 27.4833 280.929 29.95 279.729 32.05C278.563 34.1167 276.896 35.7333 274.729 36.9C272.563 38.0333 269.996 38.6 267.029 38.6C264.096 38.6 261.546 38.0333 259.379 36.9C257.213 35.7667 255.529 34.15 254.329 32.05C253.163 29.95 252.579 27.4833 252.579 24.65Z" fill="black"/>
<path d="M287.302 11.65C287.302 9.51666 287.852 7.63333 288.952 5.99999C290.052 4.36666 291.568 3.1 293.502 2.2C295.468 1.26666 297.735 0.799995 300.302 0.799995C302.768 0.799995 304.902 1.23333 306.702 2.09999C308.535 2.96666 309.952 4.19999 310.952 5.79999C311.985 7.39999 312.535 9.29999 312.602 11.5H306.202C306.135 9.93333 305.568 8.71666 304.502 7.84999C303.435 6.94999 302.002 6.49999 300.202 6.49999C298.235 6.49999 296.652 6.94999 295.452 7.84999C294.285 8.71666 293.702 9.91666 293.702 11.45C293.702 12.75 294.052 13.7833 294.752 14.55C295.485 15.2833 296.618 15.8333 298.152 16.2L303.902 17.5C307.035 18.1667 309.368 19.3167 310.902 20.95C312.435 22.55 313.202 24.7167 313.202 27.45C313.202 29.6833 312.652 31.65 311.552 33.35C310.452 35.05 308.885 36.3667 306.852 37.3C304.852 38.2 302.502 38.65 299.802 38.65C297.235 38.65 294.985 38.2167 293.052 37.35C291.118 36.45 289.602 35.2 288.502 33.6C287.435 32 286.868 30.1167 286.802 27.95H293.202C293.235 29.4833 293.835 30.7 295.002 31.6C296.202 32.4667 297.818 32.9 299.852 32.9C301.985 32.9 303.668 32.4667 304.902 31.6C306.168 30.7 306.802 29.5167 306.802 28.05C306.802 26.7833 306.468 25.7833 305.802 25.05C305.135 24.2833 304.052 23.75 302.552 23.45L296.752 22.15C293.652 21.4833 291.302 20.2833 289.702 18.55C288.102 16.7833 287.302 14.4833 287.302 11.65Z" fill="black"/>
<path d="M12.8865 34.8568L311.152 14L311.515 19.1923L13.2496 40.0491L12.8865 34.8568Z" fill="white"/>
</svg>
